<svg xmlns="http://www.w3.org/2000/svg" width="24" height="24" fill="none" viewBox="0 0 24 24" id="discord-nitro">
  <path fill="#FF4DA5" d="M15 4.25C10.7198 4.25 7.25 7.71979 7.25 12C7.25 16.2802 10.7198 19.75 15 19.75C19.2802 19.75 22.75 16.2802 22.75 12C22.75 7.71979 19.2802 4.25 15 4.25Z"></path>
  <path fill="#FF4DA5" fill-rule="evenodd" d="M5.25 5C5.25 4.58579 5.58579 4.25 6 4.25H15C15.4142 4.25 15.75 4.58579 15.75 5 15.75 5.41421 15.4142 5.75 15 5.75H6C5.58579 5.75 5.25 5.41421 5.25 5zM4.75 8.5C4.75 8.08579 5.08579 7.75 5.5 7.75H8.5C8.91421 7.75 9.25 8.08579 9.25 8.5 9.25 8.91421 8.91421 9.25 8.5 9.25H5.5C5.08579 9.25 4.75 8.91421 4.75 8.5zM1.25 8.5C1.25 8.08579 1.58579 7.75 2 7.75H3.5C3.91421 7.75 4.25 8.08579 4.25 8.5 4.25 8.91421 3.91421 9.25 3.5 9.25H2C1.58579 9.25 1.25 8.91421 1.25 8.5zM3.25 12.5C3.25 12.0858 3.58579 11.75 4 11.75H8C8.41421 11.75 8.75 12.0858 8.75 12.5 8.75 12.9142 8.41421 13.25 8 13.25H4C3.58579 13.25 3.25 12.9142 3.25 12.5z" clip-rule="evenodd"></path>
  <path fill="#ECEFF1" fill-rule="evenodd" d="M12.376 8.58397C12.5151 8.37533 12.7492 8.25 13 8.25H17C17.2508 8.25 17.4849 8.37533 17.624 8.58397L19.624 11.584C19.792 11.8359 19.792 12.1641 19.624 12.416L17.624 15.416C17.4849 15.6247 17.2508 15.75 17 15.75H13C12.7492 15.75 12.5151 15.6247 12.376 15.416L10.376 12.416C10.208 12.1641 10.208 11.8359 10.376 11.584L12.376 8.58397ZM13.4014 9.75L11.9014 12L13.4014 14.25H16.5986L18.0986 12L16.5986 9.75H13.4014Z" clip-rule="evenodd"></path>
</svg>
